<?xml version="1.0" encoding="UTF-8" standalone="no"?>
<svg
   xmlns:dc="http://purl.org/dc/elements/1.1/"
   xmlns:cc="http://creativecommons.org/ns#"
   xmlns:rdf="http://www.w3.org/1999/02/22-rdf-syntax-ns#"
   xmlns:svg="http://www.w3.org/2000/svg"
   xmlns="http://www.w3.org/2000/svg"
   xmlns:sodipodi="http://sodipodi.sourceforge.net/DTD/sodipodi-0.dtd"
   xmlns:inkscape="http://www.inkscape.org/namespaces/inkscape"
   id="Vrstva_1"
   data-name="Vrstva 1"
   viewBox="0 0 173 33.999999"
   version="1.1"
   sodipodi:docname="logo_horizontalni_zlutooranzove_orezane.svg"
   width="173"
   height="34"
   inkscape:version="0.92.3 (d244b95, 2018-08-02)">
  <metadata
     id="metadata3925">
    <rdf:RDF>
      <cc:Work
         rdf:about="">
        <dc:format>image/svg+xml</dc:format>
        <dc:type
           rdf:resource="http://purl.org/dc/dcmitype/StillImage" />
        <dc:title>logo_horizontalni</dc:title>
      </cc:Work>
    </rdf:RDF>
  </metadata>
  <sodipodi:namedview
     pagecolor="#ffffff"
     bordercolor="#666666"
     borderopacity="1"
     objecttolerance="10"
     gridtolerance="10"
     guidetolerance="10"
     inkscape:pageopacity="0"
     inkscape:pageshadow="2"
     inkscape:window-width="1877"
     inkscape:window-height="1053"
     id="namedview3923"
     showgrid="false"
     inkscape:zoom="5.3551704"
     inkscape:cx="90.324466"
     inkscape:cy="21.206648"
     inkscape:window-x="0"
     inkscape:window-y="27"
     inkscape:window-maximized="1"
     inkscape:current-layer="Vrstva_1" />
  <defs
     id="defs3882">
    <style
       id="style3880">.cls-1{fill:none;}.cls-2{fill:#fec82f;}.cls-3{fill:#eb5d3e;}</style>
  </defs>
  <title
     id="title3884">logo_horizontalni</title>
  <rect
     class="cls-1"
     y="-52.450001"
     width="226.98"
     height="86.449997"
     id="rect3886"
     x="0"
     style="fill:none" />
  <path
     class="cls-2"
     d="m 28.047539,7.1540814 2,-5.69 a 0.91,0.91 0 0 0 -0.27,-0.99999999 0.92,0.92 0 0 0 -1,-0.09 l -5.21,2.99999999 a 14.82,14.82 0 1 0 -7.14,27.7799996 q 0.66,0 1.32,-0.06 a 14.67,14.67 0 0 0 10.06,-5.24 14.9,14.9 0 0 0 0.24,-18.6999996 z m -7.72,16.3899996 -3,-7.53 a 0.89,0.89 0 0 0 -0.66,-0.54 l -7.8799992,-1.56 L 27.547539,3.1540814 Z m 6.46,1.51 a 13.52,13.52 0 1 1 -4.57,-20.8999996 L 5.7575398,13.544081 a 0.9,0.9 0 0 0 0.28,1.66 l 9.7599992,1.95 3.78,9.27 a 0.9,0.9 0 0 0 0.83,0.56 v 0 a 0.88,0.88 0 0 0 0.83,-0.6 l 6.29,-17.7699996 a 13.61,13.61 0 0 1 -0.72,16.4399996 z"
     id="path3888"
     inkscape:connector-curvature="0"
     style="fill:#fec82f" />
  <path
     class="cls-3"
     d="m 3.6975398,32.454081 a 0.92,0.92 0 0 1 -0.58,-0.21 0.89,0.89 0 0 1 -0.11,-1.26 l 9.1099992,-10.83 a 0.90138782,0.90138782 0 1 1 1.38,1.16 l -9.1099992,10.84 a 0.9,0.9 0 0 1 -0.69,0.3 z"
     id="path3890"
     inkscape:connector-curvature="0"
     style="fill:#eb5d3e" />
  <path
     class="cls-3"
     d="m 1.1775398,26.644081 a 0.92,0.92 0 0 1 -0.58000003,-0.21 0.9,0.9 0 0 1 -0.11,-1.28 l 6.38000003,-7.6 a 0.90138782,0.90138782 0 1 1 1.38,1.16 l -6.38,7.6 a 0.9,0.9 0 0 1 -0.69,0.33 z"
     id="path3892"
     inkscape:connector-curvature="0"
     style="fill:#eb5d3e" />
  <path
     class="cls-3"
     d="m 9.8675395,33.934081 a 0.9,0.9 0 0 1 -0.6899997,-1.48 l 6.3699992,-7.6 a 0.90138782,0.90138782 0 1 1 1.38,1.16 l -6.37,7.6 a 0.92,0.92 0 0 1 -0.6899995,0.32 z"
     id="path3894"
     inkscape:connector-curvature="0"
     style="fill:#eb5d3e" />
  <path
     class="cls-2"
     d="m 37.057539,24.374081 v -14.22 h 6 a 3.9,3.9 0 0 1 1.77,0.4 4.68,4.68 0 0 1 1.39,1 5.09,5.09 0 0 1 0.87,1.6 4.54,4.54 0 0 1 0.33,1.69 5,5 0 0 1 -0.31,1.73 5,5 0 0 1 -0.87,1.48 4.21,4.21 0 0 1 -1.35,1 3.91,3.91 0 0 1 -1.75,0.39 h -3.81 v 4.94 z m 2.27,-6.92 h 3.7 a 1.92,1.92 0 0 0 0.87,-0.2 2,2 0 0 0 0.67,-0.56 3,3 0 0 0 0.44,-0.84 3.23,3.23 0 0 0 0.16,-1.06 3.06,3.06 0 0 0 -0.18,-1.08 2.56,2.56 0 0 0 -0.5,-0.83 2.52,2.52 0 0 0 -0.73,-0.54 2,2 0 0 0 -0.85,-0.19 h -3.58 z"
     id="path3896"
     inkscape:connector-curvature="0"
     style="fill:#fec82f" />
  <path
     class="cls-2"
     d="m 54.817539,15.814081 a 4.93,4.93 0 0 0 -2.27,0.59 3.12,3.12 0 0 0 -1.41,1.57 v 6.4 h -2.2 v -10.46 h 2 v 2.34 a 4.76,4.76 0 0 1 1.41,-1.73 3.44,3.44 0 0 1 1.87,-0.71 h 0.33 0.23 z"
     id="path3898"
     inkscape:connector-curvature="0"
     style="fill:#fec82f" />
  <path
     class="cls-2"
     d="m 60.797539,24.574081 a 5.48,5.48 0 0 1 -2.23,-0.42 5.24,5.24 0 0 1 -1.69,-1.18 5.06,5.06 0 0 1 -1.08,-1.73 5.83,5.83 0 0 1 0,-4.14 5.09,5.09 0 0 1 1.09,-1.73 5.29,5.29 0 0 1 1.7,-1.22 5.77,5.77 0 0 1 4.42,0 5.29,5.29 0 0 1 1.7,1.18 5.09,5.09 0 0 1 1.09,1.73 5.83,5.83 0 0 1 0,4.14 5.09,5.09 0 0 1 -1.09,1.73 5.29,5.29 0 0 1 -1.7,1.22 5.45,5.45 0 0 1 -2.21,0.42 z m -3.12,-5.42 a 4,4 0 0 0 0.24,1.4 3.41,3.41 0 0 0 0.66,1.11 3.14,3.14 0 0 0 1,0.74 2.94,2.94 0 0 0 2.46,0 3,3 0 0 0 1,-0.75 3.57,3.57 0 0 0 0.66,-1.12 4.17,4.17 0 0 0 0,-2.79 3.62,3.62 0 0 0 -0.66,-1.13 3,3 0 0 0 -1,-0.75 2.84,2.84 0 0 0 -1.23,-0.27 2.66,2.66 0 0 0 -1.21,0.28 3.2,3.2 0 0 0 -1,0.76 3.84,3.84 0 0 0 -0.67,1.13 3.77,3.77 0 0 0 -0.25,1.39 z"
     id="path3900"
     inkscape:connector-curvature="0"
     style="fill:#fec82f" />
  <path
     class="cls-2"
     d="m 67.837539,24.374081 v -14.22 h 6.18 a 3.9,3.9 0 0 1 1.77,0.4 4.68,4.68 0 0 1 1.39,1 5.09,5.09 0 0 1 0.91,1.48 4.54,4.54 0 0 1 0.33,1.69 4.85,4.85 0 0 1 -0.2,1.38 4.67,4.67 0 0 1 -0.56,1.22 3.87,3.87 0 0 1 -0.88,1 3.7,3.7 0 0 1 -1.14,0.61 l 3.34,5.4 h -2.54 l -3.11,-4.9 h -3.25 v 4.94 z m 2.24,-6.92 h 3.92 a 1.81,1.81 0 0 0 0.87,-0.21 2.05,2.05 0 0 0 0.67,-0.58 3.25,3.25 0 0 0 0.44,-0.85 3.11,3.11 0 0 0 0.16,-1 2.68,2.68 0 0 0 -0.19,-1 2.92,2.92 0 0 0 -0.5,-0.84 2.45,2.45 0 0 0 -0.72,-0.57 1.84,1.84 0 0 0 -0.85,-0.21 h -3.8 z"
     id="path3902"
     inkscape:connector-curvature="0"
     style="fill:#fec82f" />
  <path
     class="cls-2"
     d="m 85.177539,24.574081 a 5.48,5.48 0 0 1 -2.23,-0.44 5.14,5.14 0 0 1 -1.69,-1.18 5.06,5.06 0 0 1 -1.08,-1.73 5.83,5.83 0 0 1 0,-4.14 5.09,5.09 0 0 1 1.09,-1.73 5.29,5.29 0 0 1 1.7,-1.18 5.77,5.77 0 0 1 4.42,0 5.29,5.29 0 0 1 1.7,1.18 5.09,5.09 0 0 1 1.09,1.73 5.83,5.83 0 0 1 0,4.14 5.09,5.09 0 0 1 -1.09,1.73 5.29,5.29 0 0 1 -1.7,1.18 5.45,5.45 0 0 1 -2.21,0.44 z m -3.12,-5.42 a 4,4 0 0 0 0.24,1.4 3.41,3.41 0 0 0 0.66,1.11 3.14,3.14 0 0 0 1,0.74 2.94,2.94 0 0 0 2.46,0 3,3 0 0 0 1,-0.75 3.57,3.57 0 0 0 0.66,-1.12 4.17,4.17 0 0 0 0,-2.79 3.62,3.62 0 0 0 -0.66,-1.13 3,3 0 0 0 -1,-0.75 2.84,2.84 0 0 0 -1.23,-0.27 2.66,2.66 0 0 0 -1.21,0.28 3.2,3.2 0 0 0 -1,0.76 3.64,3.64 0 0 0 -0.67,1.13 3.77,3.77 0 0 0 -0.25,1.39 z"
     id="path3904"
     inkscape:connector-curvature="0"
     style="fill:#fec82f" />
  <path
     class="cls-2"
     d="m 91.837539,19.154081 a 5.77,5.77 0 0 1 0.38,-2.08 5,5 0 0 1 1.11,-1.74 5.2,5.2 0 0 1 1.69,-1.18 5.53,5.53 0 0 1 2.24,-0.43 5.31,5.31 0 0 1 2.790001,0.71 4.49,4.49 0 0 1 1.75,1.89 l -2.139998,0.68 a 2.88,2.88 0 0 0 -1.000003,-1 2.76,2.76 0 0 0 -1.42,-0.37 2.93,2.93 0 0 0 -2.22,1 3.41,3.41 0 0 0 -0.66,1.11 4,4 0 0 0 -0.24,1.42 3.8,3.8 0 0 0 0.25,1.41 3.48,3.48 0 0 0 0.68,1.13 3.06,3.06 0 0 0 1,0.75 2.78,2.78 0 0 0 1.21,0.27 3.21,3.21 0 0 0 0.8,-0.11 2.82,2.82 0 0 0 0.73,-0.31 2.94,2.94 0 0 0 0.58,-0.46 1.82,1.82 0 0 0 0.370003,-0.56 l 2.159998,0.64 a 4.3,4.3 0 0 1 -1.74,1.93 5.4,5.4 0 0 1 -2.880001,0.75 5.5,5.5 0 0 1 -2.22,-0.44 5.1,5.1 0 0 1 -1.73,-1.22 5.31,5.31 0 0 1 -1.1,-1.73 5.57,5.57 0 0 1 -0.39,-2.06 z"
     id="path3906"
     inkscape:connector-curvature="0"
     style="fill:#fec82f" />
  <path
     class="cls-2"
     d="m 110.97754,24.374081 -3.34,-4.82 -1.74,1.6 v 3.18 h -2.2 V 9.7740814 h 2.2 v 9.2599996 l 4.8,-5.1 h 2.4 l -4.06,4.38 4.29,6.06 z"
     id="path3908"
     inkscape:connector-curvature="0"
     style="fill:#fec82f" />
  <path
     class="cls-2"
     d="m 118.85754,24.574081 a 5.5,5.5 0 0 1 -2.22,-0.43 5.15,5.15 0 0 1 -2.81,-2.89 5.57,5.57 0 0 1 -0.39,-2.08 5.66,5.66 0 0 1 0.39,-2.09 5.25,5.25 0 0 1 1.1,-1.74 5.08,5.08 0 0 1 1.71,-1.19 5.56,5.56 0 0 1 2.24,-0.43 5.45,5.45 0 0 1 2.21,0.44 5.22,5.22 0 0 1 1.69,1.17 5.16,5.16 0 0 1 1.07,1.7 5.8,5.8 0 0 1 0.37,2 c 0,0.16 0,0.31 0,0.45 0,0.14 0,0.26 0,0.35 h -8.38 a 3.54,3.54 0 0 0 0.33,1.26 3.26,3.26 0 0 0 0.7,1 3.05,3.05 0 0 0 1,0.63 3,3 0 0 0 1.15,0.22 3.7,3.7 0 0 0 0.87,-0.11 3,3 0 0 0 0.79,-0.32 2.87,2.87 0 0 0 0.64,-0.51 2.62,2.62 0 0 0 0.44,-0.66 l 1.88,0.54 a 4.36,4.36 0 0 1 -1.79,1.93 5.55,5.55 0 0 1 -2.99,0.76 z m 3.18,-6.22 a 3.5,3.5 0 0 0 -0.33,-1.22 3.13,3.13 0 0 0 -2.85,-1.78 3,3 0 0 0 -1.17,0.22 3.13,3.13 0 0 0 -1,0.61 3,3 0 0 0 -0.68,0.95 3.49,3.49 0 0 0 -0.32,1.22 z"
     id="path3910"
     inkscape:connector-curvature="0"
     style="fill:#fec82f" />
  <path
     class="cls-2"
     d="m 131.75754,23.834081 c -0.28,0.13 -0.67,0.28 -1.16,0.45 a 4.84,4.84 0 0 1 -1.58,0.25 3.41,3.41 0 0 1 -1,-0.14 2.23,2.23 0 0 1 -0.81,-0.42 1.84,1.84 0 0 1 -0.55,-0.73 2.72,2.72 0 0 1 -0.2,-1.09 v -6.54 h -1.38 v -1.7 h 1.38 v -3.44 h 2.2 v 3.44 h 2.28 v 1.7 h -2.28 v 5.84 a 1.1,1.1 0 0 0 0.35,0.81 1.15,1.15 0 0 0 0.77,0.25 2.41,2.41 0 0 0 0.88,-0.16 c 0.28,-0.11 0.48,-0.19 0.62,-0.26 z"
     id="path3912"
     inkscape:connector-curvature="0"
     style="fill:#fec82f" />
  <path
     class="cls-2"
     d="m 137.75754,24.574081 a 5.5,5.5 0 0 1 -2.22,-0.43 5.15,5.15 0 0 1 -2.81,-2.89 5.57,5.57 0 0 1 -0.4,-2.1 5.66,5.66 0 0 1 0.39,-2.09 5.25,5.25 0 0 1 1.1,-1.74 5.08,5.08 0 0 1 1.72,-1.17 5.56,5.56 0 0 1 2.24,-0.43 5.45,5.45 0 0 1 2.21,0.44 5.22,5.22 0 0 1 1.69,1.17 5.16,5.16 0 0 1 1.07,1.7 5.8,5.8 0 0 1 0.37,2 c 0,0.16 0,0.31 0,0.45 0,0.14 0,0.26 0,0.35 h -8.38 a 3.54,3.54 0 0 0 0.33,1.26 3.26,3.26 0 0 0 0.7,1 3.05,3.05 0 0 0 1,0.63 3,3 0 0 0 1.15,0.22 3.7,3.7 0 0 0 0.87,-0.11 3,3 0 0 0 0.79,-0.32 2.87,2.87 0 0 0 0.64,-0.51 2.62,2.62 0 0 0 0.44,-0.66 l 1.88,0.54 a 4.36,4.36 0 0 1 -1.79,1.93 5.55,5.55 0 0 1 -2.99,0.76 z m 3.18,-6.22 a 3.5,3.5 0 0 0 -0.33,-1.22 3.13,3.13 0 0 0 -2.85,-1.78 3,3 0 0 0 -1.17,0.22 3.13,3.13 0 0 0 -1,0.61 3,3 0 0 0 -0.68,0.95 3.49,3.49 0 0 0 -0.32,1.22 z"
     id="path3914"
     inkscape:connector-curvature="0"
     style="fill:#fec82f" />
  <path
     class="cls-2"
     d="m 149.65754,24.574081 a 5.46,5.46 0 0 1 -2.22,-0.43 5.15,5.15 0 0 1 -2.81,-2.89 5.57,5.57 0 0 1 -0.39,-2.08 5.66,5.66 0 0 1 0.39,-2.09 5.25,5.25 0 0 1 1.1,-1.74 5.08,5.08 0 0 1 1.71,-1.19 5.53,5.53 0 0 1 2.24,-0.43 5.45,5.45 0 0 1 2.21,0.44 5.22,5.22 0 0 1 1.69,1.17 5.16,5.16 0 0 1 1.07,1.7 5.8,5.8 0 0 1 0.37,2 c 0,0.16 0,0.31 0,0.45 0,0.14 0,0.26 0,0.35 h -8.38 a 3.54,3.54 0 0 0 0.33,1.26 3.26,3.26 0 0 0 0.7,1 3.05,3.05 0 0 0 1,0.63 3,3 0 0 0 1.15,0.22 3.7,3.7 0 0 0 0.87,-0.11 3,3 0 0 0 0.79,-0.32 2.87,2.87 0 0 0 0.64,-0.51 2.62,2.62 0 0 0 0.44,-0.66 l 1.88,0.54 a 4.36,4.36 0 0 1 -1.79,1.93 5.58,5.58 0 0 1 -2.99,0.76 z m 3.18,-6.22 a 3.5,3.5 0 0 0 -0.33,-1.22 3.13,3.13 0 0 0 -2.85,-1.78 3,3 0 0 0 -1.17,0.22 3.13,3.13 0 0 0 -1,0.61 3,3 0 0 0 -0.68,0.95 3.49,3.49 0 0 0 -0.32,1.22 z"
     id="path3916"
     inkscape:connector-curvature="0"
     style="fill:#fec82f" />
  <path
     class="cls-2"
     d="m 162.69754,15.814081 a 4.9,4.9 0 0 0 -2.27,0.59 3.12,3.12 0 0 0 -1.41,1.57 v 6.4 h -2.2 v -10.46 h 2 v 2.34 a 4.76,4.76 0 0 1 1.41,-1.73 3.44,3.44 0 0 1 1.87,-0.71 h 0.33 0.23 z"
     id="path3918"
     inkscape:connector-curvature="0"
     style="fill:#fec82f" />
  <path
     class="cls-2"
     d="m 168.09754,24.574081 a 8.09,8.09 0 0 1 -2.51,-0.41 6.19,6.19 0 0 1 -2.15,-1.17 l 0.88,-1.4 a 7.85,7.85 0 0 0 1.86,1 5.31,5.31 0 0 0 1.88,0.35 2.8,2.8 0 0 0 1.55,-0.38 1.22,1.22 0 0 0 0.57,-1.08 1,1 0 0 0 -0.64,-1 13.19,13.19 0 0 0 -2,-0.66 c -0.66,-0.17 -1.22,-0.34 -1.68,-0.5 a 4.32,4.32 0 0 1 -1.14,-0.56 1.86,1.86 0 0 1 -0.64,-0.74 2.26,2.26 0 0 1 -0.2,-1 3.09,3.09 0 0 1 0.31,-1.42 3,3 0 0 1 0.86,-1 3.73,3.73 0 0 1 1.28,-0.65 5.43,5.43 0 0 1 1.6,-0.22 6.59,6.59 0 0 1 2.2,0.36 5.86,5.86 0 0 1 1.82,1 l -0.94,1.32 a 4.94,4.94 0 0 0 -3.1,-1.16 2.68,2.68 0 0 0 -1.41,0.35 1.2,1.2 0 0 0 -0.57,1.11 1.13,1.13 0 0 0 0.12,0.54 1,1 0 0 0 0.39,0.38 3.14,3.14 0 0 0 0.7,0.29 c 0.28,0.09 0.64,0.18 1.07,0.29 0.7,0.17 1.31,0.35 1.83,0.52 a 5.18,5.18 0 0 1 1.27,0.61 2.29,2.29 0 0 1 0.74,0.82 2.45,2.45 0 0 1 0.24,1.13 2.84,2.84 0 0 1 -1.13,2.37 4.93,4.93 0 0 1 -3.06,0.91 z"
     id="path3920"
     inkscape:connector-curvature="0"
     style="fill:#fec82f" />
</svg>
